<svg xmlns:dc="http://purl.org/dc/elements/1.1/" xmlns:cc="http://creativecommons.org/ns#" xmlns:rdf="http://www.w3.org/1999/02/22-rdf-syntax-ns#" xmlns:svg="http://www.w3.org/2000/svg" xmlns="http://www.w3.org/2000/svg" xmlns:xlink="http://www.w3.org/1999/xlink" xmlns:sodipodi="http://sodipodi.sourceforge.net/DTD/sodipodi-0.dtd" xmlns:inkscape="http://www.inkscape.org/namespaces/inkscape" width="210mm" height="297mm" viewBox="0 0 210.00001 297" version="1.1" id="svg3690" sodipodi:docname="template.svg" inkscape:version="0.92.1 r15371">
  <title id="title13781">Ficha tecnica</title>
  <metadata id="metadata3696">
    <rdf:RDF>
      <cc:Work rdf:about="">
        <dc:format>image/svg+xml</dc:format>
        <dc:type rdf:resource="http://purl.org/dc/dcmitype/StillImage"/>
        <dc:title>Ficha tecnica</dc:title>
        <dc:date>07/04/2017</dc:date>
        <dc:creator>
          <cc:Agent>
            <dc:title>Jose Luis</dc:title>
          </cc:Agent>
        </dc:creator>
        <dc:rights>
          <cc:Agent>
            <dc:title>Todos los derechos reservados</dc:title>
          </cc:Agent>
        </dc:rights>
        <dc:publisher>
          <cc:Agent>
            <dc:title>INKSCAPE</dc:title>
          </cc:Agent>
        </dc:publisher>
        <dc:language>SPANISH</dc:language>
        <dc:contributor>
          <cc:Agent>
            <dc:title>ANDRES</dc:title>
          </cc:Agent>
        </dc:contributor>
        <dc:source>KERAMOLD</dc:source>
      </cc:Work>
    </rdf:RDF>
  </metadata>
  <defs id="defs3694">
    <marker inkscape:stockid="Arrow1Lend" orient="auto" refY="0.0" refX="0.0" id="marker5648" style="overflow:visible;" inkscape:isstock="true">
      <path id="path5646" d="M 0.0,0.0 L 5.0,-5.0 L -12.5,0.0 L 5.0,5.0 L 0.0,0.0 z " style="fill-rule:evenodd;stroke:#000000;stroke-width:1pt;stroke-opacity:1;fill:#000000;fill-opacity:1" transform="scale(0.8) rotate(180) translate(12.5,0)"/>
    </marker>
    <marker inkscape:stockid="Arrow1Lstart" orient="auto" refY="0.0" refX="0.0" id="marker5644" style="overflow:visible" inkscape:isstock="true">
      <path id="path5642" d="M 0.0,0.0 L 5.0,-5.0 L -12.5,0.0 L 5.0,5.0 L 0.0,0.0 z " style="fill-rule:evenodd;stroke:#000000;stroke-width:1pt;stroke-opacity:1;fill:#000000;fill-opacity:1" transform="scale(0.8) translate(12.5,0)"/>
    </marker>
    <linearGradient inkscape:collect="always" id="linearGradient5624">
      <stop style="stop-color:#000000;stop-opacity:1;" offset="0" id="stop5620"/>
      <stop style="stop-color:#000000;stop-opacity:0;" offset="1" id="stop5622"/>
    </linearGradient>
    <marker inkscape:stockid="Arrow1Lend" orient="auto" refY="0.0" refX="0.0" id="Arrow1Lend" style="overflow:visible;" inkscape:isstock="true">
      <path id="path5351" d="M 0.0,0.0 L 5.0,-5.0 L -12.5,0.0 L 5.0,5.0 L 0.0,0.0 z " style="fill-rule:evenodd;stroke:#000000;stroke-width:1pt;stroke-opacity:1;fill:#000000;fill-opacity:1" transform="scale(0.8) rotate(180) translate(12.5,0)"/>
    </marker>
    <marker inkscape:stockid="DotL" orient="auto" refY="0.0" refX="0.0" id="DotL" style="overflow:visible" inkscape:isstock="true">
      <path id="path5409" d="M -2.5,-1.0 C -2.5,1.7600000 -4.7400000,4.0 -7.5,4.0 C -10.260000,4.0 -12.5,1.7600000 -12.5,-1.0 C -12.5,-3.7600000 -10.260000,-6.0 -7.5,-6.0 C -4.7400000,-6.0 -2.5,-3.7600000 -2.5,-1.0 z " style="fill-rule:evenodd;stroke:#000000;stroke-width:1pt;stroke-opacity:1;fill:#000000;fill-opacity:1" transform="scale(0.8) translate(7.4, 1)"/>
    </marker>
    <marker inkscape:stockid="Arrow1Lstart" orient="auto" refY="0.0" refX="0.0" id="Arrow1Lstart" style="overflow:visible" inkscape:isstock="true">
      <path id="path5348" d="M 0.0,0.0 L 5.0,-5.0 L -12.5,0.0 L 5.0,5.0 L 0.0,0.0 z " style="fill-rule:evenodd;stroke:#000000;stroke-width:1pt;stroke-opacity:1;fill:#000000;fill-opacity:1" transform="scale(0.8) translate(12.5,0)"/>
    </marker>
    <marker inkscape:stockid="Arrow1Lstart" orient="auto" refY="0.0" refX="0.0" id="marker6417" style="overflow:visible" inkscape:isstock="true">
      <path id="path6415" d="M 0.0,0.0 L 5.0,-5.0 L -12.5,0.0 L 5.0,5.0 L 0.0,0.0 z " style="fill-rule:evenodd;stroke:#000000;stroke-width:1pt;stroke-opacity:1;fill:#000000;fill-opacity:1" transform="scale(0.8) translate(12.5,0)"/>
    </marker>
    <marker inkscape:stockid="Arrow1Lend" orient="auto" refY="0.0" refX="0.0" id="marker6205" style="overflow:visible;" inkscape:isstock="true">
      <path id="path6203" d="M 0.0,0.0 L 5.0,-5.0 L -12.5,0.0 L 5.0,5.0 L 0.0,0.0 z " style="fill-rule:evenodd;stroke:#000000;stroke-width:1pt;stroke-opacity:1;fill:#000000;fill-opacity:1" transform="scale(0.8) rotate(180) translate(12.5,0)"/>
    </marker>
    <marker inkscape:stockid="Arrow1Lend" orient="auto" refY="0.0" refX="0.0" id="marker5891" style="overflow:visible;" inkscape:isstock="true">
      <path id="path5889" d="M 0.0,0.0 L 5.0,-5.0 L -12.5,0.0 L 5.0,5.0 L 0.0,0.0 z " style="fill-rule:evenodd;stroke:#000000;stroke-width:1pt;stroke-opacity:1;fill:#000000;fill-opacity:1" transform="scale(0.8) rotate(180) translate(12.5,0)"/>
    </marker>
    <marker inkscape:isstock="true" style="overflow:visible" id="marker5659" refX="0.0" refY="0.0" orient="auto" inkscape:stockid="DotM">
      <path transform="scale(0.4) translate(7.4, 1)" style="fill-rule:evenodd;stroke:#000000;stroke-width:1pt;stroke-opacity:1;fill:#000000;fill-opacity:1" d="M -2.5,-1.0 C -2.5,1.7600000 -4.7400000,4.0 -7.5,4.0 C -10.260000,4.0 -12.5,1.7600000 -12.5,-1.0 C -12.5,-3.7600000 -10.260000,-6.0 -7.5,-6.0 C -4.7400000,-6.0 -2.5,-3.7600000 -2.5,-1.0 z " id="path5657"/>
    </marker>
    <marker inkscape:stockid="Arrow1Lend" orient="auto" refY="0.0" refX="0.0" id="marker5403" style="overflow:visible;" inkscape:isstock="true">
      <path id="path5401" d="M 0.0,0.0 L 5.0,-5.0 L -12.5,0.0 L 5.0,5.0 L 0.0,0.0 z " style="fill-rule:evenodd;stroke:#000000;stroke-width:1pt;stroke-opacity:1;fill:#000000;fill-opacity:1" transform="scale(0.8) rotate(180) translate(12.5,0)"/>
    </marker>
    <marker inkscape:stockid="Arrow1Lend" orient="auto" refY="0.0" refX="0.0" id="marker5207" style="overflow:visible;" inkscape:isstock="true">
      <path id="path5205" d="M 0.0,0.0 L 5.0,-5.0 L -12.5,0.0 L 5.0,5.0 L 0.0,0.0 z " style="fill-rule:evenodd;stroke:#000000;stroke-width:1pt;stroke-opacity:1;fill:#000000;fill-opacity:1" transform="scale(0.8) rotate(180) translate(12.5,0)"/>
    </marker>
    <marker inkscape:isstock="true" style="overflow:visible;" id="marker5065" refX="0.0" refY="0.0" orient="auto" inkscape:stockid="Arrow1Lend">
      <path transform="scale(0.8) rotate(180) translate(12.5,0)" style="fill-rule:evenodd;stroke:#000000;stroke-width:1pt;stroke-opacity:1;fill:#000000;fill-opacity:1" d="M 0.0,0.0 L 5.0,-5.0 L -12.5,0.0 L 5.0,5.0 L 0.0,0.0 z " id="path5063"/>
    </marker>
    <marker inkscape:isstock="true" style="overflow:visible;" id="marker4917" refX="0.0" refY="0.0" orient="auto" inkscape:stockid="Arrow1Lend">
      <path transform="scale(0.8) rotate(180) translate(12.5,0)" style="fill-rule:evenodd;stroke:#000000;stroke-width:1pt;stroke-opacity:1;fill:#000000;fill-opacity:1" d="M 0.0,0.0 L 5.0,-5.0 L -12.5,0.0 L 5.0,5.0 L 0.0,0.0 z " id="path4915"/>
    </marker>
    <marker inkscape:isstock="true" style="overflow:visible" id="marker6542" refX="0.0" refY="0.0" orient="auto" inkscape:stockid="Arrow1Lstart">
      <path transform="scale(0.8) translate(12.5,0)" style="fill-rule:evenodd;stroke:#000000;stroke-width:1pt;stroke-opacity:1;fill:#000000;fill-opacity:1" d="M 0.0,0.0 L 5.0,-5.0 L -12.5,0.0 L 5.0,5.0 L 0.0,0.0 z " id="path6540"/>
    </marker>
    <marker inkscape:isstock="true" style="overflow:visible" id="marker5614" refX="0.0" refY="0.0" orient="auto" inkscape:stockid="Arrow1Lstart">
      <path transform="scale(0.8) translate(12.5,0)" style="fill-rule:evenodd;stroke:#000000;stroke-width:1pt;stroke-opacity:1;fill:#000000;fill-opacity:1" d="M 0.0,0.0 L 5.0,-5.0 L -12.5,0.0 L 5.0,5.0 L 0.0,0.0 z " id="path5612"/>
    </marker>
    <linearGradient inkscape:collect="always" xlink:href="#linearGradient5624" id="linearGradient5626" x1="-103.09782" y1="82.837547" x2="-70.670852" y2="82.837547" gradientUnits="userSpaceOnUse"/>
  </defs>
  <sodipodi:namedview pagecolor="#ffffff" bordercolor="#666666" borderopacity="1" objecttolerance="10" gridtolerance="10" guidetolerance="10" inkscape:pageopacity="0" inkscape:pageshadow="2" inkscape:window-width="1440" inkscape:window-height="831" id="namedview3692" showgrid="false" inkscape:zoom="0.78999999" inkscape:cx="409.64846" inkscape:cy="651.33175" inkscape:window-x="1360" inkscape:window-y="32" inkscape:window-maximized="1" inkscape:current-layer="g7573" fit-margin-top="0" fit-margin-left="0" fit-margin-right="0" fit-margin-bottom="0" units="mm" inkscape:document-units="px" showguides="true" inkscape:guide-bbox="true" inkscape:pagecheckerboard="false" borderlayer="false" inkscape:snap-perpendicular="true" inkscape:snap-tangential="true" inkscape:snap-text-baseline="false" showborder="true" inkscape:showpageshadow="true">
    <inkscape:grid type="xygrid" id="grid4793"/>
  </sodipodi:namedview>
  <rect y="7.6960092" x="6.8657589" height="257.25281" width="195.7238" id="rect4486" style="display:inline;fill:none;fill-opacity:0;stroke:#000000;stroke-width:0.25255585;stroke-miterlimit:4;stroke-dasharray:none;stroke-dashoffset:0;stroke-opacity:1"/>
  <rect y="211.97771" x="6.8659468" height="11.321346" width="195.75932" id="rect4490" style="fill:none;fill-opacity:0;stroke:#000000;stroke-width:0.23767143;stroke-miterlimit:4;stroke-dasharray:none;stroke-dashoffset:0;stroke-opacity:1"/>
  <g id="g7573" transform="translate(14.19661,-15.875004)" inkscape:groupmode="layer">
    <g style="fill:#860000;fill-opacity:1" transform="translate(15.292182,-1.3798315)" id="g7551" inkscape:groupmode="layer">
      <circle style="fill:none;fill-opacity:1;stroke:#000000;stroke-width:0.36399999;stroke-miterlimit:4;stroke-dasharray:none;stroke-dashoffset:0;stroke-opacity:1" id="path9330" cx="0" cy="0" r="2.3495636" transform="matrix(0.26458334,0,0,0.26458334,-29.488792,17.254836)"/>
    </g>
    <path id="path5335" d="m 91.796661,87.399018 c -10.85597,0 -19.66282,8.80685 -19.66282,19.670342 0,10.85208 8.80685,19.67788 19.66282,19.67788 10.859729,0 19.602099,-8.82592 19.602099,-19.67788 -1.2e-4,-10.863492 -8.7425,-19.670342 -19.602099,-19.670342 z m 39.424099,30.970112 -3.54406,8.53741 6.32146,12.41539 0.83478,1.63919 -8.7652,8.7652 -14.38072,-6.79197 -8.53742,3.50605 -4.333299,13.26534 -0.55393,1.76062 h -12.38891 l -5.36151,-14.97277 -8.53741,-3.52124 -12.434087,6.30641 -1.639195,0.8196 -8.761316,-8.75755 6.784446,-14.38849 -3.51747,-8.52989 -13.242875,-4.32577 -1.756853,-0.56911 v -12.38127 l 14.984186,-5.369152 3.51747,-8.52236 -6.302523,-12.44197 -0.831011,-1.63167 8.749902,-8.7499 14.399906,6.78068 8.52612,-3.525 4.32942,-13.25781 0.55781,-1.75673 h 12.38503 l 5.365389,14.99183 8.51471,3.525 12.43809,-6.31017 1.65437,-0.83101 8.75755,8.7499 -6.78444,14.37708 3.50605,8.54142 13.28052,4.329422 1.74544,0.55781 v 12.3775 z" inkscape:connector-curvature="0" style="stroke-width:1.00000003;fill:none;fill-opacity:1;stroke:#000000;stroke-opacity:1;stroke-miterlimit:4;stroke-dasharray:none"/>
    <path style="fill:none;stroke:#000000;stroke-width:0.26500001;stroke-linecap:butt;stroke-linejoin:miter;stroke-opacity:1;stroke-miterlimit:4;stroke-dasharray:none;marker-start:url(#DotL);marker-end:url(#Arrow1Lend)" d="M 91.188784,105.1829 90.715143,52.845433" id="path5346" inkscape:connector-curvature="0"/>
    <text xml:space="preserve" style="font-style:normal;font-weight:normal;font-size:10.58333397px;line-height:1.25;font-family:sans-serif;letter-spacing:0px;word-spacing:0px;fill:#000000;fill-opacity:1;stroke:none;stroke-width:0.26458335;stroke-opacity:1" x="-84.453621" y="88.821411" id="text5618" transform="rotate(-90)" inkscape:label="Gear radious"><tspan sodipodi:role="line" id="tspan5616" x="-84.453621" y="88.821411" style="font-size:7.05555582px;fill:#000000;fill-opacity:1;stroke:none;stroke-width:0.26458335;stroke-opacity:1">20 mm</tspan></text>
    <path style="fill:none;stroke:#000000;stroke-width:0.26458335px;stroke-linecap:butt;stroke-linejoin:miter;stroke-opacity:1" d="M 36.246286,49.056295 55.908847,87.254768 35.772644,135.73282" id="path5628" inkscape:connector-curvature="0"/>
    <path style="fill:none;stroke:#000000;stroke-width:0.26458335px;stroke-linecap:butt;stroke-linejoin:miter;stroke-opacity:1" d="M 49.034625,103.52515 C 42.818023,99.698251 34.564297,87.235061 45.719131,68.001983" id="path5630" inkscape:connector-curvature="0" sodipodi:nodetypes="cc"/>
    <text xml:space="preserve" style="font-style:normal;font-weight:normal;font-size:10.58333397px;line-height:1.25;font-family:sans-serif;letter-spacing:0px;word-spacing:0px;fill:#000000;fill-opacity:1;stroke:none;stroke-width:0.26458335" x="21.800198" y="87.894958" id="text5634" inkscape:label="Tooth radious"><tspan sodipodi:role="line" id="tspan5632" x="21.800198" y="87.894958" style="font-size:7.05555582px;stroke-width:0.26458335">160 &#186;</tspan></text>
    <path style="fill:none;stroke:#000000;stroke-width:0.26458335px;stroke-linecap:butt;stroke-linejoin:miter;stroke-opacity:1" d="M 125.69606,64.048018 143.29112,46.452956" id="path5636" inkscape:connector-curvature="0"/>
    <path style="fill:none;stroke:#000000;stroke-width:0.26458335px;stroke-linecap:butt;stroke-linejoin:miter;stroke-opacity:1" d="M 134.45361,72.797919 151.21597,56.035556" id="path5638" inkscape:connector-curvature="0"/>
    <path style="fill:none;stroke:#000000;stroke-width:0.26500001;stroke-linecap:butt;stroke-linejoin:miter;stroke-opacity:1;stroke-miterlimit:4;stroke-dasharray:none;marker-start:url(#marker5644);marker-end:url(#marker5648)" d="m 141.3717,48.626582 8.37289,8.372891" id="size" inkscape:connector-curvature="0" inkscape:label="Size"/>
    <text xml:space="preserve" style="font-style:normal;font-weight:normal;font-size:7.05555534px;line-height:1.25;font-family:sans-serif;letter-spacing:0px;word-spacing:0px;fill:#000000;fill-opacity:1;stroke:none;stroke-width:0.26458335" x="68.766937" y="143.09381" id="text5652" transform="rotate(-45)" inkscape:label="Tooth size"><tspan sodipodi:role="line" id="tspan5650" x="68.766937" y="143.09381" style="stroke-width:0.26458335">5 mm</tspan></text>
  </g>
  <path style="fill:none;fill-rule:evenodd;stroke:#000000;stroke-width:0.32173604px;stroke-linecap:butt;stroke-linejoin:miter;stroke-opacity:1" d="m 172.31661,238.30214 v 26.47805" id="path7577" inkscape:connector-curvature="0"/>
  <path style="fill:none;fill-rule:evenodd;stroke:#000000;stroke-width:0.23767143px;stroke-linecap:butt;stroke-linejoin:miter;stroke-opacity:1" d="m 142.54164,250.81892 h 60.02618" id="path7579" inkscape:connector-curvature="0"/>
  <g aria-label="CODIGO:" transform="scale(1.1132316,0.89828566)" style="font-style:normal;font-weight:normal;font-size:3.84821081px;line-height:125%;font-family:sans-serif;letter-spacing:0px;word-spacing:0px;fill:#000000;fill-opacity:1;stroke:none;stroke-width:0.09620526px;stroke-linecap:butt;stroke-linejoin:miter;stroke-opacity:1" id="text7583">
    <path d="m 132.08701,267.06694 v 0.40023 q -0.19166,-0.1785 -0.40962,-0.26682 -0.21609,-0.0883 -0.46036,-0.0883 -0.48103,0 -0.73657,0.29501 -0.25555,0.29312 -0.25555,0.84931 0,0.55431 0.25555,0.84931 0.25554,0.29313 0.73657,0.29313 0.24427,0 0.46036,-0.0883 0.21796,-0.0883 0.40962,-0.26682 v 0.39647 q -0.19918,0.13529 -0.42278,0.20294 -0.22172,0.0676 -0.46975,0.0676 -0.63698,0 -1.00339,-0.38895 -0.36641,-0.39084 -0.36641,-1.0654 0,-0.67645 0.36641,-1.0654 0.36641,-0.39083 1.00339,-0.39083 0.25179,0 0.47351,0.0676 0.2236,0.0658 0.41902,0.19917 z" style="stroke-width:0.09620526px" id="path7073"/>
    <path d="m 133.8157,267.10828 q -0.41338,0 -0.65765,0.30816 -0.2424,0.30816 -0.2424,0.83992 0,0.52988 0.2424,0.83804 0.24427,0.30815 0.65765,0.30815 0.41338,0 0.65389,-0.30815 0.2424,-0.30816 0.2424,-0.83804 0,-0.53176 -0.2424,-0.83992 -0.24051,-0.30816 -0.65389,-0.30816 z m 0,-0.30815 q 0.59001,0 0.94326,0.39647 0.35325,0.39459 0.35325,1.05976 0,0.66329 -0.35325,1.05976 -0.35325,0.39459 -0.94326,0.39459 -0.59189,0 -0.94702,-0.39459 -0.35326,-0.39459 -0.35326,-1.05976 0,-0.66517 0.35326,-1.05976 0.35513,-0.39647 0.94702,-0.39647 z" style="stroke-width:0.09620526px" id="path7075"/>
    <path d="m 136.08554,267.16277 v 2.18153 h 0.45848 q 0.58061,0 0.84931,-0.26306 0.27058,-0.26306 0.27058,-0.83052 0,-0.5637 -0.27058,-0.82488 -0.2687,-0.26307 -0.84931,-0.26307 z m -0.37956,-0.31191 h 0.77979 q 0.81549,0 1.19693,0.3401 0.38144,0.33822 0.38144,1.05976 0,0.7253 -0.38332,1.0654 -0.38332,0.3401 -1.19505,0.3401 h -0.77979 z" style="stroke-width:0.09620526px" id="path7077"/>
    <path d="m 138.6673,266.85086 h 0.37956 v 2.80536 h -0.37956 z" style="stroke-width:0.09620526px" id="path7079"/>
    <path d="m 141.71505,269.25599 v -0.75348 h -0.62007 v -0.31192 h 0.99587 v 1.20445 q -0.21984,0.15595 -0.48478,0.23675 -0.26494,0.0789 -0.56558,0.0789 -0.65765,0 -1.0297,-0.38332 -0.37016,-0.38519 -0.37016,-1.07103 0,-0.68772 0.37016,-1.07104 0.37205,-0.38519 1.0297,-0.38519 0.27433,0 0.52048,0.0676 0.24803,0.0676 0.4566,0.19917 v 0.40399 q -0.21045,-0.1785 -0.4472,-0.2687 -0.23676,-0.0902 -0.49794,-0.0902 -0.51485,0 -0.77415,0.28749 -0.25742,0.28749 -0.25742,0.85683 0,0.56746 0.25742,0.85495 0.2593,0.28749 0.77415,0.28749 0.20106,0 0.35889,-0.0338 0.15784,-0.0357 0.28373,-0.10898 z" style="stroke-width:0.09620526px" id="path7081"/>
    <path d="m 143.92477,267.10828 q -0.41338,0 -0.65766,0.30816 -0.24239,0.30816 -0.24239,0.83992 0,0.52988 0.24239,0.83804 0.24428,0.30815 0.65766,0.30815 0.41338,0 0.65389,-0.30815 0.2424,-0.30816 0.2424,-0.83804 0,-0.53176 -0.2424,-0.83992 -0.24051,-0.30816 -0.65389,-0.30816 z m 0,-0.30815 q 0.59001,0 0.94326,0.39647 0.35325,0.39459 0.35325,1.05976 0,0.66329 -0.35325,1.05976 -0.35325,0.39459 -0.94326,0.39459 -0.59189,0 -0.94702,-0.39459 -0.35326,-0.39459 -0.35326,-1.05976 0,-0.66517 0.35326,-1.05976 0.35513,-0.39647 0.94702,-0.39647 z" style="stroke-width:0.09620526px" id="path7083"/>
    <path d="m 145.82069,269.17895 h 0.39647 v 0.47727 h -0.39647 z m 0,-1.5126 h 0.39647 v 0.47727 h -0.39647 z" style="stroke-width:0.09620526px" id="path7085"/>
  </g>
  <g aria-label="PEDIDO:" transform="scale(1.1132316,0.89828566)" style="font-style:normal;font-weight:normal;font-size:3.83271217px;line-height:125%;font-family:sans-serif;letter-spacing:0px;word-spacing:0px;fill:#000000;fill-opacity:1;stroke:none;stroke-width:0.0958178px;stroke-linecap:butt;stroke-linejoin:miter;stroke-opacity:1" id="text7583-6">
    <path d="m 157.03471,267.20645 v 1.04988 h 0.47534 q 0.26388,0 0.40798,-0.13662 0.1441,-0.13661 0.1441,-0.38926 0,-0.25077 -0.1441,-0.38739 -0.1441,-0.13661 -0.40798,-0.13661 z m -0.37803,-0.31066 h 0.85337 q 0.46974,0 0.70928,0.21334 0.24142,0.21147 0.24142,0.62132 0,0.41359 -0.24142,0.62506 -0.23954,0.21147 -0.70928,0.21147 h -0.47534 v 1.12287 h -0.37803 z" style="stroke-width:0.0958178px" id="path7403"/>
    <path d="m 158.96978,266.89579 h 1.76664 v 0.31814 h -1.38861 v 0.82718 h 1.3306 v 0.31814 h -1.3306 v 1.01245 h 1.4223 v 0.31815 h -1.80033 z" style="stroke-width:0.0958178px" id="path7405"/>
    <path d="m 161.7732,267.20645 v 2.17274 h 0.45663 q 0.57828,0 0.84589,-0.262 0.26949,-0.262 0.26949,-0.82718 0,-0.56143 -0.26949,-0.82156 -0.26761,-0.262 -0.84589,-0.262 z m -0.37803,-0.31066 h 0.77665 q 0.8122,0 1.1921,0.33873 0.37991,0.33686 0.37991,1.05549 0,0.72238 -0.38178,1.06111 -0.38177,0.33873 -1.19023,0.33873 h -0.77665 z" style="stroke-width:0.0958178px" id="path7407"/>
    <path d="m 164.34456,266.89579 h 0.37803 v 2.79406 h -0.37803 z" style="stroke-width:0.0958178px" id="path7409"/>
    <path d="m 165.85294,267.20645 v 2.17274 h 0.45663 q 0.57828,0 0.84589,-0.262 0.26949,-0.262 0.26949,-0.82718 0,-0.56143 -0.26949,-0.82156 -0.26761,-0.262 -0.84589,-0.262 z m -0.37803,-0.31066 h 0.77665 q 0.8122,0 1.19211,0.33873 0.3799,0.33686 0.3799,1.05549 0,0.72238 -0.38178,1.06111 -0.38177,0.33873 -1.19023,0.33873 h -0.77665 z" style="stroke-width:0.0958178px" id="path7411"/>
    <path d="m 169.55839,267.15218 q -0.41171,0 -0.655,0.30691 -0.24142,0.30692 -0.24142,0.83654 0,0.52774 0.24142,0.83466 0.24329,0.30692 0.655,0.30692 0.41172,0 0.65127,-0.30692 0.24141,-0.30692 0.24141,-0.83466 0,-0.52962 -0.24141,-0.83654 -0.23955,-0.30691 -0.65127,-0.30691 z m 0,-0.30692 q 0.58764,0 0.93947,0.39487 0.35183,0.39301 0.35183,1.0555 0,0.66061 -0.35183,1.05549 -0.35183,0.393 -0.93947,0.393 -0.5895,0 -0.9432,-0.393 -0.35183,-0.393 -0.35183,-1.05549 0,-0.66249 0.35183,-1.0555 0.3537,-0.39487 0.9432,-0.39487 z" style="stroke-width:0.0958178px" id="path7413"/>
    <path d="m 171.44668,269.2145 h 0.39487 v 0.47535 h -0.39487 z m 0,-1.50651 h 0.39487 v 0.47535 h -0.39487 z" style="stroke-width:0.0958178px" id="path7415"/>
  </g>
  <g aria-label="N&#186; SERIE:" transform="scale(1.1132316,0.89828566)" style="font-style:normal;font-weight:normal;font-size:4.02486086px;line-height:125%;font-family:sans-serif;letter-spacing:0px;word-spacing:0px;fill:#000000;fill-opacity:1;stroke:none;stroke-width:0.10062151px;stroke-linecap:butt;stroke-linejoin:miter;stroke-opacity:1" id="text7583-5">
    <path d="m 130.09175,281.22101 h 0.53455 l 1.30101,2.45462 v -2.45462 h 0.38519 v 2.93414 h -0.53455 l -1.30101,-2.45461 v 2.45461 h -0.38519 z" style="stroke-width:0.10062151px" id="path7367"/>
    <path d="m 132.98069,282.99172 h 1.3521 v 0.24172 h -1.3521 z m 0.67605,-1.82377 q 0.35178,0 0.5542,0.21814 0.20243,0.21618 0.20243,0.59155 0,0.37536 -0.20243,0.59154 -0.20242,0.21422 -0.5542,0.21422 -0.35178,0 -0.55617,-0.21618 -0.20439,-0.21618 -0.20439,-0.58958 0,-0.37537 0.20439,-0.59155 0.20439,-0.21814 0.55617,-0.21814 z m 0,0.22601 q -0.20635,0 -0.33017,0.15918 -0.12381,0.15722 -0.12381,0.4245 0,0.26138 0.12381,0.4186 0.12578,0.15722 0.33017,0.15722 0.20635,0 0.3282,-0.15722 0.12381,-0.15722 0.12381,-0.4186 0,-0.26924 -0.12185,-0.42646 -0.12184,-0.15722 -0.33016,-0.15722 z" style="stroke-width:0.10062151px" id="path7369"/>
    <path d="m 138.03731,281.31731 v 0.38716 q -0.226,-0.10809 -0.42646,-0.16115 -0.20046,-0.0531 -0.38716,-0.0531 -0.32427,0 -0.50114,0.12578 -0.17491,0.12578 -0.17491,0.35768 0,0.19456 0.11595,0.29479 0.11792,0.0983 0.44415,0.15918 l 0.23976,0.0491 q 0.44415,0.0845 0.65444,0.29872 0.21225,0.21224 0.21225,0.56992 0,0.42646 -0.28693,0.64657 -0.28497,0.22011 -0.83721,0.22011 -0.20831,0 -0.44414,-0.0472 -0.23387,-0.0472 -0.48542,-0.13954 v -0.40877 q 0.24172,0.1356 0.47362,0.20439 0.2319,0.0688 0.45594,0.0688 0.34,0 0.52473,-0.13364 0.18474,-0.13364 0.18474,-0.38126 0,-0.21618 -0.13364,-0.33802 -0.13168,-0.12185 -0.43433,-0.18277 l -0.24172,-0.0472 q -0.44415,-0.0884 -0.64264,-0.2771 -0.1985,-0.18867 -0.1985,-0.52473 0,-0.38912 0.27318,-0.61316 0.27513,-0.22404 0.75662,-0.22404 0.20635,0 0.42057,0.0373 0.21421,0.0373 0.43825,0.11202 z" style="stroke-width:0.10062151px" id="path7371"/>
    <path d="m 138.83324,281.22101 h 1.85521 v 0.3341 h -1.45822 v 0.86864 h 1.3973 v 0.3341 h -1.3973 v 1.06321 h 1.4936 v 0.33409 h -1.89059 z" style="stroke-width:0.10062151px" id="path7373"/>
    <path d="m 142.77163,282.77947 q 0.12775,0.0432 0.24763,0.18473 0.12184,0.1415 0.24369,0.38912 l 0.40288,0.80183 h -0.42646 l -0.37537,-0.75269 q -0.14543,-0.29479 -0.283,-0.39109 -0.1356,-0.0963 -0.37143,-0.0963 h -0.43236 v 1.24008 h -0.39698 v -2.93414 h 0.89616 q 0.5031,0 0.75073,0.21029 0.24762,0.21028 0.24762,0.63478 0,0.2771 -0.12971,0.45987 -0.12774,0.18277 -0.3734,0.25352 z m -0.99442,-1.23222 v 1.04159 h 0.49918 q 0.28693,0 0.43236,-0.13168 0.14739,-0.13363 0.14739,-0.39108 0,-0.25745 -0.14739,-0.38716 -0.14543,-0.13167 -0.43236,-0.13167 z" style="stroke-width:0.10062151px" id="path7375"/>
    <path d="m 144.17876,281.22101 h 0.39699 v 2.93414 h -0.39699 z" style="stroke-width:0.10062151px" id="path7377"/>
    <path d="m 145.36578,281.22101 h 1.85521 v 0.3341 h -1.45822 v 0.86864 h 1.3973 v 0.3341 h -1.3973 v 1.06321 h 1.4936 v 0.33409 h -1.89059 z" style="stroke-width:0.10062151px" id="path7379"/>
    <path d="m 147.98941,283.65597 h 0.41467 v 0.49918 h -0.41467 z m 0,-1.58203 h 0.41467 v 0.49917 h -0.41467 z" style="stroke-width:0.10062151px" id="path7381"/>
  </g>
  <g aria-label="REVISION:" transform="scale(1.1132316,0.89828566)" style="font-style:normal;font-weight:normal;font-size:3.86217451px;line-height:125%;font-family:sans-serif;letter-spacing:0px;word-spacing:0px;fill:#000000;fill-opacity:1;stroke:none;stroke-width:0.09655437px;stroke-linecap:butt;stroke-linejoin:miter;stroke-opacity:1" id="text7583-2">
    <path d="m 158.9667,282.46749 q 0.12258,0.0415 0.23762,0.17727 0.11692,0.13578 0.23384,0.37339 l 0.3866,0.76942 h -0.40923 l -0.36019,-0.72227 q -0.13955,-0.28288 -0.27156,-0.37528 -0.13012,-0.0924 -0.35642,-0.0924 h -0.41488 v 1.18996 h -0.38094 v -2.81554 h 0.85994 q 0.48277,0 0.72038,0.20178 0.23762,0.20178 0.23762,0.60912 0,0.2659 -0.12447,0.44129 -0.12258,0.17538 -0.35831,0.24327 z m -0.95422,-1.18242 v 0.99949 h 0.479 q 0.27533,0 0.41488,-0.12635 0.14143,-0.12823 0.14143,-0.37528 0,-0.24704 -0.14143,-0.37151 -0.13955,-0.12635 -0.41488,-0.12635 z" style="stroke-width:0.09655437px" id="path7384"/>
    <path d="m 160.31696,280.97203 h 1.78022 v 0.32059 h -1.39929 v 0.83353 h 1.34083 v 0.32059 h -1.34083 v 1.02024 h 1.43323 v 0.32059 h -1.81416 z" style="stroke-width:0.09655437px" id="path7386"/>
    <path d="m 163.48703,283.78757 -1.07492,-2.81554 h 0.39791 l 0.892,2.37048 0.89388,-2.37048 h 0.39602 l -1.07303,2.81554 z" style="stroke-width:0.09655437px" id="path7388"/>
    <path d="m 165.40115,280.97203 h 0.38093 v 2.81554 h -0.38093 z" style="stroke-width:0.09655437px" id="path7390"/>
    <path d="m 168.228,281.06443 v 0.37151 q -0.21687,-0.10372 -0.40922,-0.15464 -0.19236,-0.0509 -0.37151,-0.0509 -0.31116,0 -0.48089,0.12069 -0.16783,0.12069 -0.16783,0.34322 0,0.1867 0.11126,0.28287 0.11315,0.0943 0.4262,0.15275 l 0.23007,0.0471 q 0.42619,0.0811 0.62798,0.28665 0.20367,0.20367 0.20367,0.54689 0,0.40922 -0.27533,0.62043 -0.27345,0.21122 -0.80337,0.21122 -0.19989,0 -0.42619,-0.0453 -0.22442,-0.0453 -0.4658,-0.1339 v -0.39225 q 0.23195,0.13012 0.45448,0.19613 0.22253,0.066 0.43751,0.066 0.32625,0 0.50352,-0.12824 0.17727,-0.12823 0.17727,-0.36585 0,-0.20744 -0.12824,-0.32436 -0.12635,-0.11692 -0.41677,-0.17538 l -0.23195,-0.0453 q -0.4262,-0.0849 -0.61667,-0.2659 -0.19047,-0.18104 -0.19047,-0.50352 0,-0.37339 0.26213,-0.58838 0.26402,-0.21498 0.72605,-0.21498 0.19801,0 0.40356,0.0358 0.20556,0.0358 0.42054,0.10749 z" style="stroke-width:0.09655437px" id="path7392"/>
    <path d="m 168.99176,280.97203 h 0.38094 v 2.81554 h -0.38094 z" style="stroke-width:0.09655437px" id="path7394"/>
    <path d="m 171.27361,281.23039 q -0.41488,0 -0.66004,0.30927 -0.24327,0.30928 -0.24327,0.84297 0,0.5318 0.24327,0.84107 0.24516,0.30928 0.66004,0.30928 0.41489,0 0.65627,-0.30928 0.24327,-0.30927 0.24327,-0.84107 0,-0.53369 -0.24327,-0.84297 -0.24138,-0.30927 -0.65627,-0.30927 z m 0,-0.30928 q 0.59215,0 0.94669,0.39791 0.35453,0.39602 0.35453,1.06361 0,0.66569 -0.35453,1.0636 -0.35454,0.39603 -0.94669,0.39603 -0.59403,0 -0.95045,-0.39603 -0.35454,-0.39602 -0.35454,-1.0636 0,-0.66759 0.35454,-1.06361 0.35642,-0.39791 0.95045,-0.39791 z" style="stroke-width:0.09655437px" id="path7396"/>
    <path d="m 173.17076,280.97203 h 0.51294 l 1.24842,2.3554 v -2.3554 h 0.36962 v 2.81554 h -0.51294 l -1.24842,-2.3554 v 2.3554 h -0.36962 z" style="stroke-width:0.09655437px" id="path7398"/>
    <path d="m 176.13339,283.30857 h 0.39791 v 0.479 h -0.39791 z m 0,-1.51809 h 0.39791 v 0.479 h -0.39791 z" style="stroke-width:0.09655437px" id="path7400"/>
  </g>
  <path style="fill:none;fill-rule:evenodd;stroke:#000000;stroke-width:0.23767143px;stroke-linecap:butt;stroke-linejoin:miter;stroke-opacity:1" d="M 6.9184389,227.95789 H 142.43845" id="path7619" inkscape:connector-curvature="0"/>
  <path style="fill:none;fill-rule:evenodd;stroke:#000000;stroke-width:0.23767143px;stroke-linecap:butt;stroke-linejoin:miter;stroke-opacity:1" d="M 6.7146129,232.77972 H 142.54164" id="path7621" inkscape:connector-curvature="0"/>
  <path style="fill:none;fill-rule:evenodd;stroke:#000000;stroke-width:0.28549504px;stroke-linecap:butt;stroke-linejoin:miter;stroke-opacity:1" d="M 202.69316,237.92988 H 6.9184389" id="path7623" inkscape:connector-curvature="0"/>
  <path style="fill:none;fill-rule:evenodd;stroke:#000000;stroke-width:0.29384786px;stroke-linecap:butt;stroke-linejoin:miter;stroke-opacity:1" d="m 142.5977,223.34952 v 41.5001" id="path7625" inkscape:connector-curvature="0"/>
  <g aria-label="DIBUJADO:" transform="scale(1.1132316,0.89828566)" style="font-style:normal;font-weight:normal;font-size:5.03121948px;line-height:125%;font-family:sans-serif;letter-spacing:0px;word-spacing:0px;fill:#000000;fill-opacity:1;stroke:none;stroke-width:0.12578049px;stroke-linecap:butt;stroke-linejoin:miter;stroke-opacity:1" id="text7629">
    <path d="m 7.5221664,255.06473 v 2.85217 h 0.5994227 q 0.7591049,0 1.1104058,-0.34393 0.3537577,-0.34393 0.3537577,-1.08584 0,-0.73699 -0.3537577,-1.07847 -0.3513009,-0.34393 -1.1104058,-0.34393 z m -0.4962433,-0.4078 h 1.0195098 q 1.0661862,0 1.5648862,0.44465 0.4986999,0.4422 0.4986999,1.38555 0,0.94827 -0.5011566,1.39292 -0.5011566,0.44466 -1.5624295,0.44466 H 7.0259231 Z" style="stroke-width:0.12578049px" id="path7272"/>
    <path d="m 10.897604,254.65693 h 0.496243 v 3.66778 h -0.496243 z" style="stroke-width:0.12578049px" id="path7274"/>
    <path d="m 12.877664,256.57312 v 1.34378 h 0.795954 q 0.400434,0 0.592053,-0.16459 0.194075,-0.16705 0.194075,-0.50853 0,-0.34393 -0.194075,-0.50607 -0.191619,-0.16459 -0.592053,-0.16459 z m 0,-1.50839 v 1.10549 h 0.734538 q 0.363584,0 0.540463,-0.13511 0.179336,-0.13757 0.179336,-0.41763 0,-0.2776 -0.179336,-0.41518 -0.176879,-0.13757 -0.540463,-0.13757 z m -0.496244,-0.4078 h 1.267632 q 0.567486,0 0.874567,0.23584 0.307082,0.23584 0.307082,0.67066 0,0.33656 -0.157226,0.53555 -0.157226,0.19899 -0.46185,0.24812 0.366041,0.0786 0.567486,0.32919 0.203902,0.24813 0.203902,0.62154 0,0.49133 -0.334104,0.7591 -0.334105,0.26778 -0.950724,0.26778 H 12.38142 Z" style="stroke-width:0.12578049px" id="path7276"/>
    <path d="m 15.774054,254.65693 h 0.4987 v 2.22818 q 0,0.5896 0.213729,0.85 0.213728,0.25795 0.692775,0.25795 0.47659,0 0.690319,-0.25795 0.213728,-0.2604 0.213728,-0.85 v -2.22818 h 0.4987 v 2.2896 q 0,0.71734 -0.356214,1.08338 -0.353758,0.36604 -1.046533,0.36604 -0.695232,0 -1.051446,-0.36604 -0.353758,-0.36604 -0.353758,-1.08338 z" style="stroke-width:0.12578049px" id="path7278"/>
    <path d="m 19.515532,254.65693 h 0.496243 v 3.41229 q 0,0.66329 -0.253035,0.963 -0.250578,0.29971 -0.808238,0.29971 H 18.76134 v -0.41763 h 0.154769 q 0.329191,0 0.464307,-0.18425 0.135116,-0.18424 0.135116,-0.66083 z" style="stroke-width:0.12578049px" id="path7280"/>
    <path d="m 22.136778,255.1458 -0.673122,1.82529 h 1.348701 z m -0.280058,-0.48887 h 0.562573 l 1.397834,3.66778 h -0.515896 l -0.334105,-0.9409 h -1.653325 l -0.334105,0.9409 H 20.45643 Z" style="stroke-width:0.12578049px" id="path7282"/>
    <path d="m 24.846463,255.06473 v 2.85217 h 0.599423 q 0.759105,0 1.110406,-0.34393 0.353758,-0.34393 0.353758,-1.08584 0,-0.73699 -0.353758,-1.07847 -0.351301,-0.34393 -1.110406,-0.34393 z m -0.496243,-0.4078 h 1.01951 q 1.066186,0 1.564886,0.44465 0.4987,0.4422 0.4987,1.38555 0,0.94827 -0.501157,1.39292 -0.501156,0.44466 -1.562429,0.44466 h -1.01951 z" style="stroke-width:0.12578049px" id="path7284"/>
    <path d="m 29.710631,254.99349 q -0.540463,0 -0.859827,0.40289 -0.316908,0.40289 -0.316908,1.09812 0,0.69278 0.316908,1.09567 0.319364,0.40289 0.859827,0.40289 0.540463,0 0.854915,-0.40289 0.316907,-0.40289 0.316907,-1.09567 0,-0.69523 -0.316907,-1.09812 -0.314452,-0.40289 -0.854915,-0.40289 z m 0,-0.40289 q 0.771388,0 1.233239,0.51835 0.46185,0.5159 0.46185,1.38555 0,0.8672 -0.46185,1.38555 -0.461851,0.5159 -1.233239,0.5159 -0.773845,0 -1.238151,-0.5159 -0.461851,-0.51589 -0.461851,-1.38555 0,-0.86965 0.461851,-1.38555 0.464306,-0.51835 1.238151,-0.51835 z" style="stroke-width:0.12578049px" id="path7286"/>
    <path d="m 32.18939,257.70072 h 0.518353 v 0.62399 H 32.18939 Z m 0,-1.97761 h 0.518353 v 0.62399 H 32.18939 Z" style="stroke-width:0.12578049px" id="path7288"/>
  </g>
  <g aria-label="MODIFICADO:" transform="scale(1.1132316,0.89828566)" style="font-style:normal;font-weight:normal;font-size:5.11652422px;line-height:125%;font-family:sans-serif;letter-spacing:0px;word-spacing:0px;fill:#000000;fill-opacity:1;stroke:none;stroke-width:0.1279131px;stroke-linecap:butt;stroke-linejoin:miter;stroke-opacity:1" id="text7633">
    <path d="m 6.9803932,260.26189 h 0.7519891 l 0.9518534,2.53827 0.95685,-2.53827 h 0.7519893 v 3.72996 H 9.9009092 v -3.27527 l -0.9618466,2.55826 H 8.4319071 l -0.9618466,-2.55826 v 3.27527 H 6.9803932 Z" style="stroke-width:0.1279131px" id="path7291"/>
    <path d="m 12.911364,260.60415 q -0.549627,0 -0.874406,0.40972 -0.322281,0.40973 -0.322281,1.11675 0,0.70452 0.322281,1.11424 0.324779,0.40972 0.874406,0.40972 0.549627,0 0.869409,-0.40972 0.322281,-0.40972 0.322281,-1.11424 0,-0.70702 -0.322281,-1.11675 -0.319782,-0.40972 -0.869409,-0.40972 z m 0,-0.40972 q 0.784467,0 1.254148,0.52714 0.469681,0.52465 0.469681,1.40905 0,0.8819 -0.469681,1.40904 -0.469681,0.52464 -1.254148,0.52464 -0.786965,0 -1.259145,-0.52464 -0.469681,-0.52464 -0.469681,-1.40904 0,-0.8844 0.469681,-1.40905 0.47218,-0.52714 1.259145,-0.52714 z" style="stroke-width:0.1279131px" id="path7293"/>
    <path d="m 15.929314,260.6766 v 2.90053 H 16.5389 q 0.771975,0 1.129233,-0.34976 0.359755,-0.34976 0.359755,-1.10425 0,-0.74949 -0.359755,-1.09675 -0.357258,-0.34977 -1.129233,-0.34977 z m -0.504657,-0.41471 h 1.036795 q 1.084264,0 1.591419,0.45219 0.507156,0.44969 0.507156,1.40904 0,0.96435 -0.509654,1.41654 -0.509654,0.45219 -1.588921,0.45219 h -1.036795 z" style="stroke-width:0.1279131px" id="path7295"/>
    <path d="m 19.361982,260.26189 h 0.504657 v 3.72996 h -0.504657 z" style="stroke-width:0.1279131px" id="path7297"/>
    <path d="m 20.870957,260.26189 h 2.143544 v 0.42471 h -1.638887 v 1.09925 h 1.478996 v 0.42471 h -1.478996 v 1.78129 h -0.504657 z" style="stroke-width:0.1279131px" id="path7299"/>
    <path d="m 23.818953,260.26189 h 0.504657 v 3.72996 h -0.504657 z" style="stroke-width:0.1279131px" id="path7301"/>
    <path d="m 28.121032,260.54919 v 0.53214 q -0.254827,-0.23734 -0.54463,-0.35476 -0.287305,-0.11742 -0.612084,-0.11742 -0.639566,0 -0.979335,0.39223 -0.339769,0.38974 -0.339769,1.12924 0,0.737 0.339769,1.12923 0.339769,0.38973 0.979335,0.38973 0.324779,0 0.612084,-0.11742 0.289803,-0.11742 0.54463,-0.35475 v 0.52714 q -0.26482,0.17987 -0.562118,0.26981 -0.2948,0.0899 -0.624576,0.0899 -0.846925,0 -1.334094,-0.51715 -0.487169,-0.51964 -0.487169,-1.41653 0,-0.89939 0.487169,-1.41654 0.487169,-0.51965 1.334094,-0.51965 0.334773,0 0.629572,0.0899 0.297298,0.0874 0.557122,0.26482 z" style="stroke-width:0.1279131px" id="path7303"/>
    <path d="m 30.152152,260.75905 -0.684535,1.85624 h 1.371569 z m -0.284806,-0.49716 h 0.572111 l 1.421534,3.72996 H 31.336348 L 30.996579,263.035 h -1.681358 l -0.339769,0.95685 h -0.532139 z" style="stroke-width:0.1279131px" id="path7305"/>
    <path d="m 32.90778,260.6766 v 2.90053 h 0.609586 q 0.771975,0 1.129233,-0.34976 0.359755,-0.34976 0.359755,-1.10425 0,-0.74949 -0.359755,-1.09675 -0.357258,-0.34977 -1.129233,-0.34977 z m -0.504657,-0.41471 h 1.036795 q 1.084264,0 1.591419,0.45219 0.507156,0.44969 0.507156,1.40904 0,0.96435 -0.509654,1.41654 -0.509654,0.45219 -1.588921,0.45219 h -1.036795 z" style="stroke-width:0.1279131px" id="path7307"/>
    <path d="m 37.854419,260.60415 q -0.549627,0 -0.874406,0.40972 -0.322281,0.40973 -0.322281,1.11675 0,0.70452 0.322281,1.11424 0.324779,0.40972 0.874406,0.40972 0.549626,0 0.869409,-0.40972 0.322281,-0.40972 0.322281,-1.11424 0,-0.70702 -0.322281,-1.11675 -0.319783,-0.40972 -0.869409,-0.40972 z m 0,-0.40972 q 0.784467,0 1.254148,0.52714 0.469681,0.52465 0.469681,1.40905 0,0.8819 -0.469681,1.40904 -0.469681,0.52464 -1.254148,0.52464 -0.786966,0 -1.259145,-0.52464 -0.469681,-0.52464 -0.469681,-1.40904 0,-0.8844 0.469681,-1.40905 0.472179,-0.52714 1.259145,-0.52714 z" style="stroke-width:0.1279131px" id="path7309"/>
    <path d="m 40.375206,263.35728 h 0.527141 v 0.63457 h -0.527141 z m 0,-2.01113 h 0.527141 v 0.63457 h -0.527141 z" style="stroke-width:0.1279131px" id="path7311"/>
  </g>
  <g aria-label="SUPERVISOR:" transform="scale(1.1132316,0.89828566)" style="font-style:normal;font-weight:normal;font-size:4.912745px;line-height:125%;font-family:sans-serif;letter-spacing:0px;word-spacing:0px;fill:#000000;fill-opacity:1;stroke:none;stroke-width:0.12281862px;stroke-linecap:butt;stroke-linejoin:miter;stroke-opacity:1" id="text7637">
    <path d="m 9.3029281,266.19101 v 0.47256 q -0.2758621,-0.13193 -0.5205398,-0.1967 -0.2446778,-0.0648 -0.4725639,-0.0648 -0.3958022,0 -0.6116943,0.15353 -0.2134933,0.15352 -0.2134933,0.43658 0,0.23748 0.1415293,0.35982 0.143928,0.11994 0.542129,0.1943 l 0.2926538,0.06 q 0.5421291,0.10315 0.7988008,0.36462 0.2590706,0.25907 0.2590706,0.69565 0,0.52054 -0.350225,0.78921 -0.3478262,0.26866 -1.0218894,0.26866 -0.2542729,0 -0.5421291,-0.0576 -0.2854573,-0.0576 -0.5925039,-0.17031 v -0.49895 q 0.2950526,0.16551 0.5781111,0.24947 0.2830586,0.084 0.5565219,0.084 0.4149927,0 0.64048,-0.16312 0.2254873,-0.16312 0.2254873,-0.46537 0,-0.26387 -0.1631185,-0.41259 -0.1607197,-0.14873 -0.5301351,-0.22309 l -0.2950525,-0.0576 q -0.5421291,-0.10795 -0.784408,-0.33823 -0.242279,-0.23029 -0.242279,-0.64048 0,-0.47496 0.3334334,-0.74843 0.3358322,-0.27346 0.9235385,-0.27346 0.2518741,0 0.5133435,0.0456 0.2614693,0.0456 0.5349326,0.13673 z" style="stroke-width:0.12281862px" id="path7314"/>
    <path d="m 10.21927,266.07347 h 0.486957 v 2.17571 q 0,0.57571 0.208696,0.82998 0.208695,0.25188 0.676461,0.25188 0.465368,0 0.674064,-0.25188 0.208695,-0.25427 0.208695,-0.82998 v -2.17571 H 12.9611 v 2.23568 q 0,0.70045 -0.347826,1.05787 -0.345428,0.35742 -1.02189,0.35742 -0.67886,0 -1.026686,-0.35742 -0.345428,-0.35742 -0.345428,-1.05787 z" style="stroke-width:0.12281862px" id="path7316"/>
    <path d="m 14.357202,266.47167 v 1.34572 h 0.609296 q 0.338231,0 0.522938,-0.17511 0.184708,-0.17511 0.184708,-0.49895 0,-0.32144 -0.184708,-0.49655 -0.184707,-0.17511 -0.522938,-0.17511 z m -0.484558,-0.3982 h 1.093854 q 0.602099,0 0.909145,0.27346 0.309446,0.27106 0.309446,0.7964 0,0.53014 -0.309446,0.8012 -0.307046,0.27107 -0.909145,0.27107 h -0.609296 v 1.43928 h -0.484558 z" style="stroke-width:0.12281862px" id="path7318"/>
    <path d="m 16.837563,266.07347 h 2.264469 v 0.40779 h -1.779911 v 1.06027 h 1.705548 v 0.4078 h -1.705548 v 1.29775 h 1.823089 v 0.4078 h -2.307647 z" style="stroke-width:0.12281862px" id="path7320"/>
    <path d="m 21.64476,267.97572 q 0.155923,0.0528 0.302249,0.22548 0.148726,0.17272 0.297452,0.47497 l 0.491754,0.97871 h -0.52054 l -0.458171,-0.91874 q -0.177511,-0.35982 -0.345427,-0.47737 -0.165518,-0.11754 -0.453374,-0.11754 h -0.527736 v 1.51365 h -0.484558 v -3.58141 h 1.093854 q 0.614093,0 0.916342,0.25667 0.302249,0.25667 0.302249,0.77481 0,0.33823 -0.158321,0.56132 -0.155922,0.22309 -0.455773,0.30945 z m -1.213793,-1.50405 v 1.27136 h 0.609296 q 0.350225,0 0.527736,-0.16072 0.17991,-0.16312 0.17991,-0.47736 0,-0.31424 -0.17991,-0.47256 -0.177511,-0.16072 -0.527736,-0.16072 z" style="stroke-width:0.12281862px" id="path7322"/>
    <path d="m 24.017175,269.65488 -1.367317,-3.58141 h 0.506147 l 1.134633,3.01529 1.137032,-3.01529 h 0.503748 l -1.364918,3.58141 z" style="stroke-width:0.12281862px" id="path7324"/>
    <path d="m 26.451959,266.07347 h 0.484557 v 3.58141 h -0.484557 z" style="stroke-width:0.12281862px" id="path7326"/>
    <path d="m 30.047761,266.19101 v 0.47256 q -0.275862,-0.13193 -0.52054,-0.1967 -0.244677,-0.0648 -0.472564,-0.0648 -0.395802,0 -0.611694,0.15353 -0.213493,0.15352 -0.213493,0.43658 0,0.23748 0.141529,0.35982 0.143928,0.11994 0.542129,0.1943 l 0.292654,0.06 q 0.542129,0.10315 0.798801,0.36462 0.25907,0.25907 0.25907,0.69565 0,0.52054 -0.350225,0.78921 -0.347826,0.26866 -1.021889,0.26866 -0.254273,0 -0.542129,-0.0576 -0.285458,-0.0576 -0.592504,-0.17031 v -0.49895 q 0.295052,0.16551 0.578111,0.24947 0.283059,0.084 0.556522,0.084 0.414993,0 0.64048,-0.16312 0.225487,-0.16312 0.225487,-0.46537 0,-0.26387 -0.163118,-0.41259 -0.16072,-0.14873 -0.530135,-0.22309 L 28.7692,268.0093 q -0.542129,-0.10795 -0.784408,-0.33823 -0.242279,-0.23029 -0.242279,-0.64048 0,-0.47496 0.333433,-0.74843 0.335833,-0.27346 0.923539,-0.27346 0.251874,0 0.513343,0.0456 0.26147,0.0456 0.534933,0.13673 z" style="stroke-width:0.12281862px" id="path7328"/>
    <path d="m 32.47295,266.4021 q -0.527736,0 -0.83958,0.39341 -0.309446,0.3934 -0.309446,1.07226 0,0.67646 0.309446,1.06987 0.311844,0.3934 0.83958,0.3934 0.527736,0 0.834783,-0.3934 0.309445,-0.39341 0.309445,-1.06987 0,-0.67886 -0.309445,-1.07226 -0.307047,-0.39341 -0.834783,-0.39341 z m 0,-0.3934 q 0.753224,0 1.204198,0.50615 0.450975,0.50374 0.450975,1.35292 0,0.84678 -0.450975,1.35292 -0.450974,0.50375 -1.204198,0.50375 -0.755622,0 -1.208996,-0.50375 -0.450974,-0.50374 -0.450974,-1.35292 0,-0.84918 0.450974,-1.35292 0.453374,-0.50615 1.208996,-0.50615 z" style="stroke-width:0.12281862px" id="path7330"/>
    <path d="m 36.584495,267.97572 q 0.155922,0.0528 0.302249,0.22548 0.148726,0.17272 0.297451,0.47497 l 0.491754,0.97871 H 37.15541 l -0.458171,-0.91874 q -0.177512,-0.35982 -0.345428,-0.47737 -0.165517,-0.11754 -0.453373,-0.11754 h -0.527737 v 1.51365 h -0.484557 v -3.58141 h 1.093853 q 0.614093,0 0.916342,0.25667 0.302249,0.25667 0.302249,0.77481 0,0.33823 -0.158321,0.56132 -0.155922,0.22309 -0.455772,0.30945 z m -1.213794,-1.50405 v 1.27136 h 0.609296 q 0.350225,0 0.527736,-0.16072 0.17991,-0.16312 0.17991,-0.47736 0,-0.31424 -0.17991,-0.47256 -0.177511,-0.16072 -0.527736,-0.16072 z" style="stroke-width:0.12281862px" id="path7332"/>
    <path d="m 38.242066,269.04558 h 0.506147 v 0.6093 h -0.506147 z m 0,-1.93103 h 0.506147 v 0.60929 h -0.506147 z" style="stroke-width:0.12281862px" id="path7334"/>
  </g>
  <path style="fill:none;fill-rule:evenodd;stroke:#000000;stroke-width:0.23767143px;stroke-linecap:butt;stroke-linejoin:miter;stroke-opacity:1" d="M 6.8166971,243.02262 H 142.47236" id="path7641" inkscape:connector-curvature="0"/>
  <path style="fill:none;fill-rule:evenodd;stroke:#000000;stroke-width:0.23767143px;stroke-linecap:butt;stroke-linejoin:miter;stroke-opacity:1" d="M 6.7146129,259.24974 H 142.34979" id="path7643" inkscape:connector-curvature="0"/>
  <g aria-label="CLIENTE:" transform="scale(1.1132316,0.89828566)" style="font-style:normal;font-weight:normal;font-size:6.31697989px;line-height:125%;font-family:sans-serif;letter-spacing:0px;word-spacing:0px;fill:#000000;fill-opacity:1;stroke:none;stroke-width:0.15792449px;stroke-linecap:butt;stroke-linejoin:miter;stroke-opacity:1" id="text7647">
    <path d="m 11.140829,289.91444 v 0.65699 q -0.314615,-0.29303 -0.672413,-0.438 -0.354713,-0.14497 -0.7556933,-0.14497 -0.7896225,0 -1.2091094,0.48426 -0.419487,0.48118 -0.419487,1.39418 0,0.90992 0.419487,1.39418 0.4194869,0.48117 1.2091094,0.48117 0.4009803,0 0.7556933,-0.14497 0.357798,-0.14497 0.672413,-0.43799 v 0.65082 q -0.326953,0.22208 -0.694004,0.33312 -0.363967,0.11104 -0.7711159,0.11104 -1.0456329,0 -1.6471031,-0.63848 -0.6014703,-0.64157 -0.6014703,-1.74889 0,-1.11041 0.6014703,-1.74889 0.6014702,-0.64157 1.6471031,-0.64157 0.4133179,0 0.7772849,0.11104 0.367051,0.10796 0.687835,0.32696 z" style="stroke-width:0.15792449px" id="path7350"/>
    <path d="m 12.10935,289.55972 h 0.623062 v 4.08075 h 2.242404 v 0.52436 H 12.10935 Z" style="stroke-width:0.15792449px" id="path7352"/>
    <path d="m 15.625638,289.55972 h 0.623061 v 4.60511 h -0.623061 z" style="stroke-width:0.15792449px" id="path7354"/>
    <path d="m 17.488654,289.55972 h 2.911733 v 0.52436 h -2.288672 v 1.36333 h 2.193053 v 0.52436 h -2.193053 v 1.6687 h 2.344192 v 0.52436 h -2.967253 z" style="stroke-width:0.15792449px" id="path7356"/>
    <path d="m 21.486117,289.55972 h 0.838974 l 2.041914,3.8525 v -3.8525 h 0.604555 v 4.60511 h -0.838974 l -2.041914,-3.8525 v 3.8525 h -0.604555 z" style="stroke-width:0.15792449px" id="path7358"/>
    <path d="m 25.573031,289.55972 h 3.895677 v 0.52436 h -1.634766 v 4.08075 h -0.626146 v -4.08075 h -1.634765 z" style="stroke-width:0.15792449px" id="path7360"/>
    <path d="m 30.073263,289.55972 h 2.911733 v 0.52436 h -2.288672 v 1.36333 h 2.193053 v 0.52436 h -2.193053 v 1.6687 h 2.344192 v 0.52436 h -2.967253 z" style="stroke-width:0.15792449px" id="path7362"/>
    <path d="m 34.19102,293.38137 h 0.650822 v 0.78346 H 34.19102 Z m 0,-2.48299 h 0.650822 v 0.78345 H 34.19102 Z" style="stroke-width:0.15792449px" id="path7364"/>
  </g>
  <g aria-label="NOTAS:" transform="scale(1.1132316,0.89828566)" style="font-style:normal;font-weight:normal;font-size:2.14426088px;line-height:125%;font-family:sans-serif;letter-spacing:0px;word-spacing:0px;fill:#000000;fill-opacity:1;stroke:none;stroke-width:0.05360653px;stroke-linecap:butt;stroke-linejoin:miter;stroke-opacity:1" id="text7651">
    <path d="m 8.2444975,272.2987 h 0.2847846 l 0.6931156,1.30771 v -1.30771 h 0.2052125 v 1.56318 H 9.1428255 l -0.6931156,-1.30771 v 1.30771 H 8.2444975 Z" style="stroke-width:0.05360653px" id="path7337"/>
    <path d="m 10.482989,272.44214 q -0.230341,0 -0.366451,0.17171 -0.1350636,0.17171 -0.1350636,0.46801 0,0.29526 0.1350636,0.46696 0.13611,0.17171 0.366451,0.17171 0.23034,0 0.364356,-0.17171 0.135064,-0.1717 0.135064,-0.46696 0,-0.2963 -0.135064,-0.46801 -0.134016,-0.17171 -0.364356,-0.17171 z m 0,-0.17171 q 0.328758,0 0.525595,0.22092 0.196836,0.21987 0.196836,0.59051 0,0.36959 -0.196836,0.59051 -0.196837,0.21987 -0.525595,0.21987 -0.329806,0 -0.5276897,-0.21987 -0.1968364,-0.21987 -0.1968364,-0.59051 0,-0.37064 0.1968364,-0.59051 0.1978837,-0.22092 0.5276897,-0.22092 z" style="stroke-width:0.05360653px" id="path7339"/>
    <path d="m 11.319543,272.2987 h 1.322364 v 0.17799 h -0.554911 v 1.38519 h -0.212541 v -1.38519 h -0.554912 z" style="stroke-width:0.05360653px" id="path7341"/>
    <path d="m 13.202054,272.50706 -0.286879,0.77792 h 0.574804 z m -0.119359,-0.20836 h 0.239764 l 0.595744,1.56318 h -0.21987 l -0.142393,-0.401 h -0.704632 l -0.142392,0.401 h -0.223012 z" style="stroke-width:0.05360653px" id="path7343"/>
    <path d="m 15.08247,272.35001 v 0.20626 q -0.120405,-0.0576 -0.227199,-0.0859 -0.106795,-0.0283 -0.20626,-0.0283 -0.172755,0 -0.266985,0.067 -0.09318,0.067 -0.09318,0.19055 0,0.10366 0.06177,0.15706 0.06282,0.0523 0.236622,0.0848 l 0.127734,0.0262 q 0.236623,0.045 0.348652,0.15914 0.113076,0.11308 0.113076,0.30363 0,0.2272 -0.152862,0.34447 -0.151815,0.11726 -0.446023,0.11726 -0.110982,0 -0.236622,-0.0251 -0.124594,-0.0251 -0.25861,-0.0743 V 273.575 q 0.128781,0.0722 0.252328,0.10889 0.123546,0.0366 0.242904,0.0366 0.181131,0 0.27955,-0.0712 0.09842,-0.0712 0.09842,-0.20312 0,-0.11517 -0.0712,-0.18009 -0.07015,-0.0649 -0.231388,-0.0974 l -0.128781,-0.0251 q -0.236623,-0.0471 -0.34237,-0.14762 -0.105747,-0.10052 -0.105747,-0.27955 0,-0.20731 0.145533,-0.32667 0.146581,-0.11936 0.403096,-0.11936 0.109935,0 0.224059,0.0199 0.114123,0.0199 0.233481,0.0597 z" style="stroke-width:0.05360653px" id="path7345"/>
    <path d="m 15.547339,273.59594 h 0.220918 v 0.26594 h -0.220918 z m 0,-0.84284 h 0.220918 v 0.26594 h -0.220918 z" style="stroke-width:0.05360653px" id="path7347"/>
  </g>
  <path style="fill:none;fill-rule:evenodd;stroke:#000000;stroke-width:0.27190521px;stroke-linecap:butt;stroke-linejoin:miter;stroke-opacity:1" d="m 47.750795,223.36319 v 19.48438" id="path7653" inkscape:connector-curvature="0"/>
  <path style="fill:none;fill-rule:evenodd;stroke:#000000;stroke-width:0.27223316px;stroke-linecap:butt;stroke-linejoin:miter;stroke-opacity:1" d="m 76.552947,223.30552 v 19.49759" id="path7655" inkscape:connector-curvature="0"/>
  <path style="fill:none;fill-rule:evenodd;stroke:#000000;stroke-width:0.27348644;stroke-linecap:butt;stroke-linejoin:miter;stroke-miterlimit:4;stroke-dasharray:none;stroke-dashoffset:0;stroke-opacity:1" d="m 109.40501,223.28037 v 19.67755" id="path7657" inkscape:connector-curvature="0"/>
  <text xml:space="preserve" style="font-style:normal;font-weight:normal;font-size:3.81064773px;line-height:125%;font-family:sans-serif;letter-spacing:0px;word-spacing:0px;fill:#000000;fill-opacity:1;stroke:none;stroke-width:0.09526619px;stroke-linecap:butt;stroke-linejoin:miter;stroke-opacity:1" x="47.778183" y="252.28186" id="text7661" transform="scale(1.1132316,0.89828566)"><tspan sodipodi:role="line" id="tspan7659" x="47.778183" y="252.28186" style="stroke-width:0.09526619px">NOMBRE</tspan></text>
  <text xml:space="preserve" style="font-style:normal;font-weight:normal;font-size:3.81064773px;line-height:125%;font-family:sans-serif;letter-spacing:0px;word-spacing:0px;fill:#000000;fill-opacity:1;stroke:none;stroke-width:0.09526619px;stroke-linecap:butt;stroke-linejoin:miter;stroke-opacity:1" x="76.213051" y="252.45418" id="text7665" transform="scale(1.1132316,0.89828566)"><tspan sodipodi:role="line" id="tspan7663" x="76.213051" y="252.45418" style="stroke-width:0.09526619px">FECHA</tspan></text>
  <text xml:space="preserve" style="font-style:normal;font-weight:normal;font-size:4.0697813px;line-height:125%;font-family:sans-serif;letter-spacing:0px;word-spacing:0px;fill:#000000;fill-opacity:1;stroke:none;stroke-width:0.10174453px;stroke-linecap:butt;stroke-linejoin:miter;stroke-opacity:1" x="105.65649" y="252.54585" id="text7669" transform="scale(1.1132316,0.89828566)"><tspan sodipodi:role="line" id="tspan7667" x="105.65649" y="252.54585" style="stroke-width:0.10174453px">FIRMA</tspan></text>
  <text xml:space="preserve" style="font-style:normal;font-weight:normal;font-size:9.50685692px;line-height:125%;font-family:sans-serif;letter-spacing:0px;word-spacing:0px;fill:#000000;fill-opacity:1;stroke:none;stroke-width:0.23767143px;stroke-linecap:butt;stroke-linejoin:miter;stroke-opacity:1" x="130.6281" y="277.53406" id="code" transform="scale(1.1132316,0.89828566)" inkscape:label="Codigo"><tspan sodipodi:role="line" id="tspan3878" x="130.6281" y="277.53406" style="stroke-width:0.23767143px">0001</tspan></text>
  <text xml:space="preserve" style="font-style:normal;font-weight:normal;font-size:9.50685692px;line-height:125%;font-family:sans-serif;letter-spacing:0px;word-spacing:0px;fill:#000000;fill-opacity:1;stroke:none;stroke-width:0.23767143px;stroke-linecap:butt;stroke-linejoin:miter;stroke-opacity:1" x="157.08012" y="277.54803" id="pedido" transform="scale(1.1132316,0.89828566)" inkscape:label="Pedido"><tspan sodipodi:role="line" id="tspan3878-7" x="157.08012" y="277.54803" style="stroke-width:0.23767143px">0001</tspan></text>
  <text xml:space="preserve" style="font-style:normal;font-weight:normal;font-size:9.50685692px;line-height:125%;font-family:sans-serif;letter-spacing:0px;word-spacing:0px;fill:#000000;fill-opacity:1;stroke:none;stroke-width:0.23767143px;stroke-linecap:butt;stroke-linejoin:miter;stroke-opacity:1" x="130.36858" y="292.54099" id="n_serie" transform="scale(1.1132316,0.89828566)" inkscape:label="Numero de serie"><tspan sodipodi:role="line" id="tspan3878-3" x="130.36858" y="292.54099" style="stroke-width:0.23767143px">0001</tspan></text>
  <text xml:space="preserve" style="font-style:normal;font-weight:normal;font-size:9.50685692px;line-height:125%;font-family:sans-serif;letter-spacing:0px;word-spacing:0px;fill:#000000;fill-opacity:1;stroke:none;stroke-width:0.23767143px;stroke-linecap:butt;stroke-linejoin:miter;stroke-opacity:1" x="157.42479" y="292.54099" id="rev" transform="scale(1.1132316,0.89828566)" inkscape:label="Revision"><tspan sodipodi:role="line" id="tspan3878-79" x="157.42479" y="292.54099" style="stroke-width:0.23767143px">0001</tspan></text>
</svg>